{
    "asset" : {
        "generator" : "Khronos glTF Blender I/O v1.3.48",
        "version" : "2.0"
    },
    "scene" : 0,
    "scenes" : [
        {
            "name" : "Scene",
            "nodes" : [
                12
            ]
        }
    ],
    "nodes" : [
        {
            "mesh" : 0,
            "name" : "ground"
        },
        {
            "mesh" : 1,
            "name" : "lava"
        },
        {
            "mesh" : 2,
            "name" : "Rock Type1 02 mesh.001",
            "rotation" : [
                0.9321531653404236,
                -0.14614275097846985,
                0.3029068112373352,
                0.134090393781662
            ],
            "scale" : [
                0.4367261528968811,
                0.4367261826992035,
                0.43672627210617065
            ],
            "translation" : [
                -0.2775369882583618,
                -0.7796201109886169,
                0.26056531071662903
            ]
        },
        {
            "mesh" : 3,
            "name" : "Rock Type3 04 mesh.001",
            "rotation" : [
                -0.4548068344593048,
                0,
                0.536166787147522,
                0.7111090421676636
            ],
            "scale" : [
                0.7189584970474243,
                0.7189584970474243,
                0.7189584970474243
            ],
            "translation" : [
                -0.628730058670044,
                0.1857646256685257,
                -0.6615133285522461
            ]
        },
        {
            "mesh" : 4,
            "name" : "Rock Type5 03 mesh",
            "rotation" : [
                -0.2848779261112213,
                0.44673603773117065,
                0.7273741960525513,
                0.4361172914505005
            ],
            "scale" : [
                0.3259308636188507,
                0.3259308636188507,
                0.3259308636188507
            ],
            "translation" : [
                -0.8291187882423401,
                -0.15004749596118927,
                0.35922887921333313
            ]
        },
        {
            "children" : [
                2,
                3,
                4
            ],
            "name" : "rocks"
        },
        {
            "mesh" : 5,
            "name" : "Tree Type0 01 Model",
            "rotation" : [
                0.4773936867713928,
                -0.11410664767026901,
                0.1714562028646469,
                0.8542117476463318
            ],
            "translation" : [
                -0.4813499450683594,
                0.4404659867286682,
                0.6710061430931091
            ]
        },
        {
            "mesh" : 6,
            "name" : "Tree Type0 02 Model",
            "rotation" : [
                -0.17947334051132202,
                0.0026006398256868124,
                -0.11135907471179962,
                0.9774363040924072
            ],
            "scale" : [
                0.8476323485374451,
                0.8476323485374451,
                0.8476325869560242
            ],
            "translation" : [
                0.017687678337097168,
                0.933661699295044,
                -0.24392998218536377
            ]
        },
        {
            "mesh" : 6,
            "name" : "Tree Type0 02 Model.001",
            "rotation" : [
                0.10556443780660629,
                -0.43489399552345276,
                0.7332237362861633,
                0.5119633674621582
            ],
            "scale" : [
                0.64146488904953,
                0.6414649486541748,
                0.6414650082588196
            ],
            "translation" : [
                -0.8054165840148926,
                -0.4610139727592468,
                -0.4018552303314209
            ]
        },
        {
            "mesh" : 7,
            "name" : "Tree Type0 02 Model.002",
            "rotation" : [
                -0.2031596302986145,
                -0.5217488408088684,
                0.8284106850624084,
                -0.015494227409362793
            ],
            "scale" : [
                0.729887068271637,
                0.7298870086669922,
                0.7298871874809265
            ],
            "translation" : [
                0.0041672587394714355,
                -0.8912105560302734,
                -0.5481085777282715
            ]
        },
        {
            "children" : [
                6,
                7,
                8,
                9
            ],
            "name" : "trees"
        },
        {
            "mesh" : 8,
            "name" : "void",
            "scale" : [
                0.24703224003314972,
                0.24703224003314972,
                0.24703224003314972
            ]
        },
        {
            "children" : [
                0,
                1,
                5,
                10,
                11
            ],
            "name" : "world"
        }
    ],
    "materials" : [
        {
            "doubleSided" : true,
            "name" : "Material.007",
            "pbrMetallicRoughness" : {}
        },
        {
            "doubleSided" : true,
            "name" : "Material.009",
            "pbrMetallicRoughness" : {}
        },
        {
            "doubleSided" : true,
            "name" : "color4.001",
            "pbrMetallicRoughness" : {}
        },
        {
            "doubleSided" : true,
            "name" : "_trees_normal.002",
            "pbrMetallicRoughness" : {}
        },
        {
            "doubleSided" : true,
            "emissiveFactor" : [
                0,
                0,
                0
            ],
            "name" : "Material.008",
            "pbrMetallicRoughness" : {
                "baseColorFactor" : [
                    0,
                    0,
                    0,
                    1
                ],
                "metallicFactor" : 0,
                "roughnessFactor" : 0.5
            }
        }
    ],
    "meshes" : [
        {
            "name" : "Icosphere.004",
            "primitives" : [
                {
                    "attributes" : {
                        "POSITION" : 0,
                        "NORMAL" : 1,
                        "TEXCOORD_0" : 2
                    },
                    "indices" : 3,
                    "material" : 0
                }
            ]
        },
        {
            "name" : "Icosphere.005",
            "primitives" : [
                {
                    "attributes" : {
                        "POSITION" : 4,
                        "NORMAL" : 5,
                        "TEXCOORD_0" : 6
                    },
                    "indices" : 7,
                    "material" : 1
                }
            ]
        },
        {
            "name" : "Circle.013",
            "primitives" : [
                {
                    "attributes" : {
                        "POSITION" : 8,
                        "NORMAL" : 9,
                        "TEXCOORD_0" : 10
                    },
                    "indices" : 11,
                    "material" : 2
                }
            ]
        },
        {
            "name" : "Cube.003",
            "primitives" : [
                {
                    "attributes" : {
                        "POSITION" : 12,
                        "NORMAL" : 13,
                        "TEXCOORD_0" : 14
                    },
                    "indices" : 15,
                    "material" : 2
                }
            ]
        },
        {
            "name" : "Cube.019",
            "primitives" : [
                {
                    "attributes" : {
                        "POSITION" : 16,
                        "NORMAL" : 17,
                        "TEXCOORD_0" : 18
                    },
                    "indices" : 19,
                    "material" : 2
                }
            ]
        },
        {
            "name" : "Sphere.005",
            "primitives" : [
                {
                    "attributes" : {
                        "POSITION" : 20,
                        "NORMAL" : 21,
                        "TEXCOORD_0" : 22
                    },
                    "indices" : 23,
                    "material" : 3
                }
            ]
        },
        {
            "name" : "Circle.009",
            "primitives" : [
                {
                    "attributes" : {
                        "POSITION" : 24,
                        "NORMAL" : 25,
                        "TEXCOORD_0" : 26
                    },
                    "indices" : 27,
                    "material" : 3
                }
            ]
        },
        {
            "name" : "Circle.012",
            "primitives" : [
                {
                    "attributes" : {
                        "POSITION" : 28,
                        "NORMAL" : 29,
                        "TEXCOORD_0" : 30
                    },
                    "indices" : 31,
                    "material" : 3
                }
            ]
        },
        {
            "name" : "Sphere",
            "primitives" : [
                {
                    "attributes" : {
                        "POSITION" : 32,
                        "NORMAL" : 33,
                        "TEXCOORD_0" : 34
                    },
                    "indices" : 35,
                    "material" : 4
                }
            ]
        }
    ],
    "accessors" : [
        {
            "bufferView" : 0,
            "componentType" : 5126,
            "count" : 2004,
            "max" : [
                0.9751186370849609,
                1.0410853624343872,
                1.0077570676803589
            ],
            "min" : [
                -0.9899874329566956,
                -1.0602353811264038,
                -0.9732930064201355
            ],
            "type" : "VEC3"
        },
        {
            "bufferView" : 1,
            "componentType" : 5126,
            "count" : 2004,
            "type" : "VEC3"
        },
        {
            "bufferView" : 2,
            "componentType" : 5126,
            "count" : 2004,
            "type" : "VEC2"
        },
        {
            "bufferView" : 3,
            "componentType" : 5123,
            "count" : 2022,
            "type" : "SCALAR"
        },
        {
            "bufferView" : 4,
            "componentType" : 5126,
            "count" : 39,
            "max" : [
                0.3813849687576294,
                0.9097731113433838,
                0.6377101540565491
            ],
            "min" : [
                -0.41584348678588867,
                0.623582124710083,
                0.0025704801082611084
            ],
            "type" : "VEC3"
        },
        {
            "bufferView" : 5,
            "componentType" : 5126,
            "count" : 39,
            "type" : "VEC3"
        },
        {
            "bufferView" : 6,
            "componentType" : 5126,
            "count" : 39,
            "type" : "VEC2"
        },
        {
            "bufferView" : 7,
            "componentType" : 5123,
            "count" : 39,
            "type" : "SCALAR"
        },
        {
            "bufferView" : 8,
            "componentType" : 5126,
            "count" : 752,
            "max" : [
                0.909854531288147,
                1.5207386016845703,
                1.429315209388733
            ],
            "min" : [
                -1.0113048553466797,
                -0.02934388816356659,
                -0.9740773439407349
            ],
            "type" : "VEC3"
        },
        {
            "bufferView" : 9,
            "componentType" : 5126,
            "count" : 752,
            "type" : "VEC3"
        },
        {
            "bufferView" : 10,
            "componentType" : 5126,
            "count" : 752,
            "type" : "VEC2"
        },
        {
            "bufferView" : 11,
            "componentType" : 5123,
            "count" : 1104,
            "type" : "SCALAR"
        },
        {
            "bufferView" : 12,
            "componentType" : 5126,
            "count" : 320,
            "max" : [
                0.7221401929855347,
                0.5326141119003296,
                0.5595455169677734
            ],
            "min" : [
                -0.566716194152832,
                -0.17399223148822784,
                -0.7031537294387817
            ],
            "type" : "VEC3"
        },
        {
            "bufferView" : 13,
            "componentType" : 5126,
            "count" : 320,
            "type" : "VEC3"
        },
        {
            "bufferView" : 14,
            "componentType" : 5126,
            "count" : 320,
            "type" : "VEC2"
        },
        {
            "bufferView" : 15,
            "componentType" : 5123,
            "count" : 480,
            "type" : "SCALAR"
        },
        {
            "bufferView" : 16,
            "componentType" : 5126,
            "count" : 160,
            "max" : [
                1.1488062143325806,
                1.437337875366211,
                0.9714269042015076
            ],
            "min" : [
                -1.0196588039398193,
                -0.0076068369671702385,
                -0.9908433556556702
            ],
            "type" : "VEC3"
        },
        {
            "bufferView" : 17,
            "componentType" : 5126,
            "count" : 160,
            "type" : "VEC3"
        },
        {
            "bufferView" : 18,
            "componentType" : 5126,
            "count" : 160,
            "type" : "VEC2"
        },
        {
            "bufferView" : 19,
            "componentType" : 5123,
            "count" : 240,
            "type" : "SCALAR"
        },
        {
            "bufferView" : 20,
            "componentType" : 5126,
            "count" : 1138,
            "max" : [
                0.47125163674354553,
                0.5786598920822144,
                0.5288317799568176
            ],
            "min" : [
                -0.4647272825241089,
                -0.05075422301888466,
                -0.5297015905380249
            ],
            "type" : "VEC3"
        },
        {
            "bufferView" : 21,
            "componentType" : 5126,
            "count" : 1138,
            "type" : "VEC3"
        },
        {
            "bufferView" : 22,
            "componentType" : 5126,
            "count" : 1138,
            "type" : "VEC2"
        },
        {
            "bufferView" : 23,
            "componentType" : 5123,
            "count" : 1680,
            "type" : "SCALAR"
        },
        {
            "bufferView" : 24,
            "componentType" : 5126,
            "count" : 1815,
            "max" : [
                0.5820860862731934,
                0.7407277822494507,
                0.40031713247299194
            ],
            "min" : [
                -0.40564095973968506,
                -0.0001501142978668213,
                -0.45195260643959045
            ],
            "type" : "VEC3"
        },
        {
            "bufferView" : 25,
            "componentType" : 5126,
            "count" : 1815,
            "type" : "VEC3"
        },
        {
            "bufferView" : 26,
            "componentType" : 5126,
            "count" : 1815,
            "type" : "VEC2"
        },
        {
            "bufferView" : 27,
            "componentType" : 5123,
            "count" : 2679,
            "type" : "SCALAR"
        },
        {
            "bufferView" : 28,
            "componentType" : 5126,
            "count" : 1667,
            "max" : [
                0.335410475730896,
                0.5631941556930542,
                0.23412059247493744
            ],
            "min" : [
                -0.19702517986297607,
                -0.022851377725601196,
                -0.25842636823654175
            ],
            "type" : "VEC3"
        },
        {
            "bufferView" : 29,
            "componentType" : 5126,
            "count" : 1667,
            "type" : "VEC3"
        },
        {
            "bufferView" : 30,
            "componentType" : 5126,
            "count" : 1667,
            "type" : "VEC2"
        },
        {
            "bufferView" : 31,
            "componentType" : 5123,
            "count" : 2457,
            "type" : "SCALAR"
        },
        {
            "bufferView" : 32,
            "componentType" : 5126,
            "count" : 559,
            "max" : [
                1.000000238418579,
                1,
                1.0000003576278687
            ],
            "min" : [
                -0.9999998211860657,
                -1,
                -1
            ],
            "type" : "VEC3"
        },
        {
            "bufferView" : 33,
            "componentType" : 5126,
            "count" : 559,
            "type" : "VEC3"
        },
        {
            "bufferView" : 34,
            "componentType" : 5126,
            "count" : 559,
            "type" : "VEC2"
        },
        {
            "bufferView" : 35,
            "componentType" : 5123,
            "count" : 2880,
            "type" : "SCALAR"
        }
    ],
    "bufferViews" : [
        {
            "buffer" : 0,
            "byteLength" : 24048,
            "byteOffset" : 0
        },
        {
            "buffer" : 0,
            "byteLength" : 24048,
            "byteOffset" : 24048
        },
        {
            "buffer" : 0,
            "byteLength" : 16032,
            "byteOffset" : 48096
        },
        {
            "buffer" : 0,
            "byteLength" : 4044,
            "byteOffset" : 64128
        },
        {
            "buffer" : 0,
            "byteLength" : 468,
            "byteOffset" : 68172
        },
        {
            "buffer" : 0,
            "byteLength" : 468,
            "byteOffset" : 68640
        },
        {
            "buffer" : 0,
            "byteLength" : 312,
            "byteOffset" : 69108
        },
        {
            "buffer" : 0,
            "byteLength" : 78,
            "byteOffset" : 69420
        },
        {
            "buffer" : 0,
            "byteLength" : 9024,
            "byteOffset" : 69500
        },
        {
            "buffer" : 0,
            "byteLength" : 9024,
            "byteOffset" : 78524
        },
        {
            "buffer" : 0,
            "byteLength" : 6016,
            "byteOffset" : 87548
        },
        {
            "buffer" : 0,
            "byteLength" : 2208,
            "byteOffset" : 93564
        },
        {
            "buffer" : 0,
            "byteLength" : 3840,
            "byteOffset" : 95772
        },
        {
            "buffer" : 0,
            "byteLength" : 3840,
            "byteOffset" : 99612
        },
        {
            "buffer" : 0,
            "byteLength" : 2560,
            "byteOffset" : 103452
        },
        {
            "buffer" : 0,
            "byteLength" : 960,
            "byteOffset" : 106012
        },
        {
            "buffer" : 0,
            "byteLength" : 1920,
            "byteOffset" : 106972
        },
        {
            "buffer" : 0,
            "byteLength" : 1920,
            "byteOffset" : 108892
        },
        {
            "buffer" : 0,
            "byteLength" : 1280,
            "byteOffset" : 110812
        },
        {
            "buffer" : 0,
            "byteLength" : 480,
            "byteOffset" : 112092
        },
        {
            "buffer" : 0,
            "byteLength" : 13656,
            "byteOffset" : 112572
        },
        {
            "buffer" : 0,
            "byteLength" : 13656,
            "byteOffset" : 126228
        },
        {
            "buffer" : 0,
            "byteLength" : 9104,
            "byteOffset" : 139884
        },
        {
            "buffer" : 0,
            "byteLength" : 3360,
            "byteOffset" : 148988
        },
        {
            "buffer" : 0,
            "byteLength" : 21780,
            "byteOffset" : 152348
        },
        {
            "buffer" : 0,
            "byteLength" : 21780,
            "byteOffset" : 174128
        },
        {
            "buffer" : 0,
            "byteLength" : 14520,
            "byteOffset" : 195908
        },
        {
            "buffer" : 0,
            "byteLength" : 5358,
            "byteOffset" : 210428
        },
        {
            "buffer" : 0,
            "byteLength" : 20004,
            "byteOffset" : 215788
        },
        {
            "buffer" : 0,
            "byteLength" : 20004,
            "byteOffset" : 235792
        },
        {
            "buffer" : 0,
            "byteLength" : 13336,
            "byteOffset" : 255796
        },
        {
            "buffer" : 0,
            "byteLength" : 4914,
            "byteOffset" : 269132
        },
        {
            "buffer" : 0,
            "byteLength" : 6708,
            "byteOffset" : 274048
        },
        {
            "buffer" : 0,
            "byteLength" : 6708,
            "byteOffset" : 280756
        },
        {
            "buffer" : 0,
            "byteLength" : 4472,
            "byteOffset" : 287464
        },
        {
            "buffer" : 0,
            "byteLength" : 5760,
            "byteOffset" : 291936
        }
    ],
    "buffers" : [
        {
            "byteLength" : 297696,
            "uri" : "data:application/octet-stream;base64,"
        }
    ]
}
