{
    "asset" : {
        "generator" : "Khronos glTF Blender I/O v1.7.33",
        "version" : "2.0"
    },
    "scene" : 0,
    "scenes" : [
        {
            "name" : "Scene",
            "nodes" : [
                0,
                1
            ]
        }
    ],
    "nodes" : [
        {
            "mesh" : 0,
            "name" : "outer"
        },
        {
            "mesh" : 1,
            "name" : "inner"
        }
    ],
    "materials" : [
        {
            "doubleSided" : true,
            "name" : "Material.002",
            "pbrMetallicRoughness" : {
                "baseColorFactor" : [
                    0.8000000715255737,
                    0.4673815071582794,
                    0.07231933623552322,
                    1
                ],
                "metallicFactor" : 0,
                "roughnessFactor" : 0.5
            }
        },
        {
            "doubleSided" : true,
            "name" : "Material.001",
            "pbrMetallicRoughness" : {
                "baseColorFactor" : [
                    0.800000011920929,
                    0.800000011920929,
                    0.800000011920929,
                    1
                ],
                "metallicFactor" : 0,
                "roughnessFactor" : 0.5
            }
        }
    ],
    "meshes" : [
        {
            "name" : "Icosphere",
            "primitives" : [
                {
                    "attributes" : {
                        "POSITION" : 0,
                        "NORMAL" : 1,
                        "TEXCOORD_0" : 2
                    },
                    "indices" : 3,
                    "material" : 0
                }
            ]
        },
        {
            "name" : "Icosphere.001",
            "primitives" : [
                {
                    "attributes" : {
                        "POSITION" : 4,
                        "NORMAL" : 5,
                        "TEXCOORD_0" : 6
                    },
                    "indices" : 7,
                    "material" : 1
                }
            ]
        }
    ],
    "accessors" : [
        {
            "bufferView" : 0,
            "componentType" : 5126,
            "count" : 609,
            "max" : [
                1.0294581651687622,
                1.0152101516723633,
                1.0031051635742188
            ],
            "min" : [
                -0.972625732421875,
                -1.0262278318405151,
                -0.9884661436080933
            ],
            "type" : "VEC3"
        },
        {
            "bufferView" : 1,
            "componentType" : 5126,
            "count" : 609,
            "type" : "VEC3"
        },
        {
            "bufferView" : 2,
            "componentType" : 5126,
            "count" : 609,
            "type" : "VEC2"
        },
        {
            "bufferView" : 3,
            "componentType" : 5123,
            "count" : 609,
            "type" : "SCALAR"
        },
        {
            "bufferView" : 4,
            "componentType" : 5126,
            "count" : 351,
            "max" : [
                1.0066851377487183,
                0.9661148190498352,
                0.9809150695800781
            ],
            "min" : [
                -1.0057140588760376,
                -1.003526210784912,
                -1.010329008102417
            ],
            "type" : "VEC3"
        },
        {
            "bufferView" : 5,
            "componentType" : 5126,
            "count" : 351,
            "type" : "VEC3"
        },
        {
            "bufferView" : 6,
            "componentType" : 5126,
            "count" : 351,
            "type" : "VEC2"
        },
        {
            "bufferView" : 7,
            "componentType" : 5123,
            "count" : 351,
            "type" : "SCALAR"
        }
    ],
    "bufferViews" : [
        {
            "buffer" : 0,
            "byteLength" : 7308,
            "byteOffset" : 0
        },
        {
            "buffer" : 0,
            "byteLength" : 7308,
            "byteOffset" : 7308
        },
        {
            "buffer" : 0,
            "byteLength" : 4872,
            "byteOffset" : 14616
        },
        {
            "buffer" : 0,
            "byteLength" : 1218,
            "byteOffset" : 19488
        },
        {
            "buffer" : 0,
            "byteLength" : 4212,
            "byteOffset" : 20708
        },
        {
            "buffer" : 0,
            "byteLength" : 4212,
            "byteOffset" : 24920
        },
        {
            "buffer" : 0,
            "byteLength" : 2808,
            "byteOffset" : 29132
        },
        {
            "buffer" : 0,
            "byteLength" : 702,
            "byteOffset" : 31940
        }
    ],
    "buffers" : [
        {
            "byteLength" : 32644,
            "uri" : "data:application/octet-stream;base64,"
        }
    ]
}
